<mxfile host="app.diagrams.net" modified="2024-04-24T08:04:59.006Z" agent="Mozilla/5.0 (Windows NT 10.0; Win64; x64; rv:125.0) Gecko/20100101 Firefox/125.0" etag="ClcNq38k8rEHenJOYLYM" version="24.2.8" type="github">
  <diagram name="Seite-1" id="CzBj8h5oJ6Yu-khFd_B0">
    <mxGraphModel dx="1147" dy="565" grid="1" gridSize="10" guides="1" tooltips="1" connect="1" arrows="1" fold="1" page="1" pageScale="1" pageWidth="827" pageHeight="1169" math="0" shadow="0">
      <root>
        <mxCell id="0" />
        <mxCell id="1" parent="0" />
        <mxCell id="G8FxuZJUO-ShumowUQQT-36" value="Analysis" style="rounded=1;whiteSpace=wrap;html=1;verticalAlign=top;" vertex="1" parent="1">
          <mxGeometry x="320" y="319.98" width="160" height="120" as="geometry" />
        </mxCell>
        <mxCell id="G8FxuZJUO-ShumowUQQT-39" value="Snd&lt;sub&gt;in&lt;/sub&gt;" style="edgeStyle=orthogonalEdgeStyle;rounded=0;orthogonalLoop=1;jettySize=auto;html=1;exitX=1;exitY=0.5;exitDx=0;exitDy=0;entryX=0;entryY=0.5;entryDx=0;entryDy=0;" edge="1" parent="1" source="G8FxuZJUO-ShumowUQQT-37" target="G8FxuZJUO-ShumowUQQT-36">
          <mxGeometry x="-0.5" relative="1" as="geometry">
            <mxPoint as="offset" />
          </mxGeometry>
        </mxCell>
        <mxCell id="G8FxuZJUO-ShumowUQQT-102" style="edgeStyle=orthogonalEdgeStyle;rounded=0;orthogonalLoop=1;jettySize=auto;html=1;exitX=0;exitY=0.5;exitDx=0;exitDy=0;startArrow=classic;startFill=1;endArrow=none;endFill=0;" edge="1" parent="1" source="G8FxuZJUO-ShumowUQQT-37">
          <mxGeometry relative="1" as="geometry">
            <mxPoint x="80" y="379.79999999999995" as="targetPoint" />
          </mxGeometry>
        </mxCell>
        <mxCell id="G8FxuZJUO-ShumowUQQT-37" value="Calibration" style="rounded=1;whiteSpace=wrap;html=1;" vertex="1" parent="1">
          <mxGeometry x="120" y="359.98" width="120" height="40" as="geometry" />
        </mxCell>
        <mxCell id="G8FxuZJUO-ShumowUQQT-41" style="edgeStyle=orthogonalEdgeStyle;rounded=0;orthogonalLoop=1;jettySize=auto;html=1;exitX=0.5;exitY=1;exitDx=0;exitDy=0;" edge="1" parent="1" source="G8FxuZJUO-ShumowUQQT-37" target="G8FxuZJUO-ShumowUQQT-37">
          <mxGeometry relative="1" as="geometry" />
        </mxCell>
        <mxCell id="G8FxuZJUO-ShumowUQQT-64" value="" style="group" vertex="1" connectable="0" parent="1">
          <mxGeometry x="334" y="359.98" width="136" height="60" as="geometry" />
        </mxCell>
        <mxCell id="G8FxuZJUO-ShumowUQQT-65" style="edgeStyle=orthogonalEdgeStyle;rounded=0;orthogonalLoop=1;jettySize=auto;html=1;exitX=1;exitY=0.5;exitDx=0;exitDy=0;entryX=0;entryY=0.5;entryDx=0;entryDy=0;" edge="1" parent="G8FxuZJUO-ShumowUQQT-64" source="G8FxuZJUO-ShumowUQQT-67" target="G8FxuZJUO-ShumowUQQT-68">
          <mxGeometry relative="1" as="geometry" />
        </mxCell>
        <mxCell id="G8FxuZJUO-ShumowUQQT-66" style="edgeStyle=orthogonalEdgeStyle;rounded=0;orthogonalLoop=1;jettySize=auto;html=1;exitX=0;exitY=0.5;exitDx=0;exitDy=0;startArrow=classic;startFill=1;endArrow=none;endFill=0;" edge="1" parent="G8FxuZJUO-ShumowUQQT-64" source="G8FxuZJUO-ShumowUQQT-67">
          <mxGeometry relative="1" as="geometry">
            <mxPoint x="8" y="55.26315789473684" as="targetPoint" />
            <mxPoint x="30" y="8.83040935672515" as="sourcePoint" />
            <Array as="points">
              <mxPoint x="8" y="3.947368421052632" />
            </Array>
          </mxGeometry>
        </mxCell>
        <mxCell id="G8FxuZJUO-ShumowUQQT-67" value="pGC" style="rounded=1;whiteSpace=wrap;html=1;fontSize=8;" vertex="1" parent="G8FxuZJUO-ShumowUQQT-64">
          <mxGeometry x="30" width="24" height="8.187134502923977" as="geometry" />
        </mxCell>
        <mxCell id="G8FxuZJUO-ShumowUQQT-68" value="HP-AF" style="rounded=1;whiteSpace=wrap;html=1;fontSize=8;" vertex="1" parent="G8FxuZJUO-ShumowUQQT-64">
          <mxGeometry x="72" width="32" height="8.186842105263157" as="geometry" />
        </mxCell>
        <mxCell id="G8FxuZJUO-ShumowUQQT-69" style="edgeStyle=orthogonalEdgeStyle;rounded=0;orthogonalLoop=1;jettySize=auto;html=1;exitX=1;exitY=0.5;exitDx=0;exitDy=0;entryX=0.5;entryY=0;entryDx=0;entryDy=0;" edge="1" parent="G8FxuZJUO-ShumowUQQT-64" source="G8FxuZJUO-ShumowUQQT-70" target="G8FxuZJUO-ShumowUQQT-73">
          <mxGeometry relative="1" as="geometry" />
        </mxCell>
        <mxCell id="G8FxuZJUO-ShumowUQQT-70" value="lv. est." style="rounded=1;whiteSpace=wrap;html=1;fontSize=8;" vertex="1" parent="G8FxuZJUO-ShumowUQQT-64">
          <mxGeometry x="56" y="16.839473684210535" width="40" height="8.186842105263157" as="geometry" />
        </mxCell>
        <mxCell id="G8FxuZJUO-ShumowUQQT-71" style="edgeStyle=orthogonalEdgeStyle;rounded=0;orthogonalLoop=1;jettySize=auto;html=1;exitX=1;exitY=0.5;exitDx=0;exitDy=0;" edge="1" parent="G8FxuZJUO-ShumowUQQT-64" source="G8FxuZJUO-ShumowUQQT-73">
          <mxGeometry relative="1" as="geometry">
            <mxPoint x="136" y="33.256578947368425" as="targetPoint" />
          </mxGeometry>
        </mxCell>
        <mxCell id="G8FxuZJUO-ShumowUQQT-72" style="edgeStyle=orthogonalEdgeStyle;rounded=0;orthogonalLoop=1;jettySize=auto;html=1;exitX=0.335;exitY=1.02;exitDx=0;exitDy=0;exitPerimeter=0;" edge="1" parent="G8FxuZJUO-ShumowUQQT-64" source="G8FxuZJUO-ShumowUQQT-73">
          <mxGeometry relative="1" as="geometry">
            <mxPoint x="96" y="56.05263157894737" as="targetPoint" />
            <mxPoint x="94" y="38.099415204678394" as="sourcePoint" />
          </mxGeometry>
        </mxCell>
        <mxCell id="G8FxuZJUO-ShumowUQQT-73" value="" style="rounded=1;whiteSpace=wrap;html=1;" vertex="1" parent="G8FxuZJUO-ShumowUQQT-64">
          <mxGeometry x="88" y="29.122807017543856" width="24" height="8.187134502923977" as="geometry" />
        </mxCell>
        <mxCell id="G8FxuZJUO-ShumowUQQT-74" style="edgeStyle=orthogonalEdgeStyle;rounded=0;orthogonalLoop=1;jettySize=auto;html=1;exitX=1;exitY=0.5;exitDx=0;exitDy=0;entryX=0;entryY=0.5;entryDx=0;entryDy=0;" edge="1" parent="G8FxuZJUO-ShumowUQQT-64" source="G8FxuZJUO-ShumowUQQT-76" target="G8FxuZJUO-ShumowUQQT-78">
          <mxGeometry relative="1" as="geometry" />
        </mxCell>
        <mxCell id="G8FxuZJUO-ShumowUQQT-75" style="edgeStyle=orthogonalEdgeStyle;rounded=0;orthogonalLoop=1;jettySize=auto;html=1;exitX=0;exitY=0.5;exitDx=0;exitDy=0;endArrow=none;endFill=0;startArrow=classic;startFill=1;entryX=1;entryY=0.5;entryDx=0;entryDy=0;" edge="1" parent="G8FxuZJUO-ShumowUQQT-64" source="G8FxuZJUO-ShumowUQQT-76">
          <mxGeometry relative="1" as="geometry">
            <mxPoint y="56.19853801169593" as="targetPoint" />
          </mxGeometry>
        </mxCell>
        <mxCell id="G8FxuZJUO-ShumowUQQT-76" value="&lt;div style=&quot;font-size: 8px;&quot;&gt;pGC&lt;/div&gt;" style="rounded=1;whiteSpace=wrap;html=1;fontSize=8;" vertex="1" parent="G8FxuZJUO-ShumowUQQT-64">
          <mxGeometry x="24" y="51.81286549707602" width="24" height="8.187134502923977" as="geometry" />
        </mxCell>
        <mxCell id="G8FxuZJUO-ShumowUQQT-77" style="edgeStyle=orthogonalEdgeStyle;rounded=0;orthogonalLoop=1;jettySize=auto;html=1;exitX=1;exitY=0.5;exitDx=0;exitDy=0;" edge="1" parent="G8FxuZJUO-ShumowUQQT-64" source="G8FxuZJUO-ShumowUQQT-78">
          <mxGeometry relative="1" as="geometry">
            <mxPoint x="136" y="55.868618915710314" as="targetPoint" />
          </mxGeometry>
        </mxCell>
        <mxCell id="G8FxuZJUO-ShumowUQQT-78" value="&lt;div style=&quot;font-size: 8px;&quot;&gt;HP-AF&lt;/div&gt;" style="rounded=1;whiteSpace=wrap;html=1;fontSize=8;" vertex="1" parent="G8FxuZJUO-ShumowUQQT-64">
          <mxGeometry x="56" y="51.81315789473684" width="32" height="8.186842105263157" as="geometry" />
        </mxCell>
        <mxCell id="G8FxuZJUO-ShumowUQQT-79" style="edgeStyle=orthogonalEdgeStyle;rounded=0;orthogonalLoop=1;jettySize=auto;html=1;exitX=1;exitY=0.5;exitDx=0;exitDy=0;endArrow=classic;endFill=1;" edge="1" parent="G8FxuZJUO-ShumowUQQT-64" source="G8FxuZJUO-ShumowUQQT-81">
          <mxGeometry relative="1" as="geometry">
            <mxPoint x="122" y="48.88815789473683" as="sourcePoint" />
            <mxPoint x="124" y="34.73684210526316" as="targetPoint" />
            <Array as="points">
              <mxPoint x="124" y="44.21052631578947" />
            </Array>
          </mxGeometry>
        </mxCell>
        <mxCell id="G8FxuZJUO-ShumowUQQT-80" style="edgeStyle=orthogonalEdgeStyle;rounded=0;orthogonalLoop=1;jettySize=auto;html=1;exitX=0.5;exitY=1;exitDx=0;exitDy=0;" edge="1" parent="G8FxuZJUO-ShumowUQQT-64" source="G8FxuZJUO-ShumowUQQT-81">
          <mxGeometry relative="1" as="geometry">
            <mxPoint x="108.97391304347826" y="56.05263157894737" as="targetPoint" />
            <mxPoint x="109" y="49.73684210526316" as="sourcePoint" />
          </mxGeometry>
        </mxCell>
        <mxCell id="G8FxuZJUO-ShumowUQQT-81" value="" style="rounded=1;whiteSpace=wrap;html=1;" vertex="1" parent="G8FxuZJUO-ShumowUQQT-64">
          <mxGeometry x="100" y="40.93421052631579" width="18" height="6.43421052631579" as="geometry" />
        </mxCell>
        <mxCell id="G8FxuZJUO-ShumowUQQT-82" style="rounded=0;orthogonalLoop=1;jettySize=auto;html=1;exitX=0;exitY=1;exitDx=0;exitDy=0;entryX=1;entryY=0;entryDx=0;entryDy=0;endArrow=none;endFill=0;" edge="1" parent="G8FxuZJUO-ShumowUQQT-64">
          <mxGeometry relative="1" as="geometry">
            <mxPoint x="116.15187055790835" y="32.043110195046495" as="sourcePoint" />
            <mxPoint x="116.88516647912866" y="31.319462904368557" as="targetPoint" />
          </mxGeometry>
        </mxCell>
        <mxCell id="G8FxuZJUO-ShumowUQQT-83" style="rounded=0;orthogonalLoop=1;jettySize=auto;html=1;exitX=0;exitY=0;exitDx=0;exitDy=0;entryX=1;entryY=1;entryDx=0;entryDy=0;endArrow=none;endFill=0;" edge="1" parent="G8FxuZJUO-ShumowUQQT-64">
          <mxGeometry relative="1" as="geometry">
            <mxPoint x="116.15187055790835" y="31.319462904368645" as="sourcePoint" />
            <mxPoint x="116.88516647912866" y="32.043110195046545" as="targetPoint" />
          </mxGeometry>
        </mxCell>
        <mxCell id="G8FxuZJUO-ShumowUQQT-84" style="edgeStyle=orthogonalEdgeStyle;rounded=0;orthogonalLoop=1;jettySize=auto;html=1;exitX=0.5;exitY=1;exitDx=0;exitDy=0;entryX=0.75;entryY=0;entryDx=0;entryDy=0;" edge="1" parent="G8FxuZJUO-ShumowUQQT-64" source="G8FxuZJUO-ShumowUQQT-68" target="G8FxuZJUO-ShumowUQQT-70">
          <mxGeometry relative="1" as="geometry" />
        </mxCell>
        <mxCell id="G8FxuZJUO-ShumowUQQT-85" value="" style="endArrow=classic;html=1;rounded=0;exitX=1;exitY=0.5;exitDx=0;exitDy=0;edgeStyle=orthogonalEdgeStyle;entryX=0.11;entryY=-0.013;entryDx=0;entryDy=0;entryPerimeter=0;" edge="1" parent="G8FxuZJUO-ShumowUQQT-64" source="G8FxuZJUO-ShumowUQQT-67" target="G8FxuZJUO-ShumowUQQT-70">
          <mxGeometry width="50" height="50" relative="1" as="geometry">
            <mxPoint x="40" y="39.473684210526315" as="sourcePoint" />
            <mxPoint x="64" y="15.789473684210527" as="targetPoint" />
          </mxGeometry>
        </mxCell>
        <mxCell id="G8FxuZJUO-ShumowUQQT-86" value="" style="endArrow=none;dashed=1;html=1;dashPattern=1 3;strokeWidth=2;rounded=0;" edge="1" parent="G8FxuZJUO-ShumowUQQT-64">
          <mxGeometry width="50" height="50" relative="1" as="geometry">
            <mxPoint x="4" y="1" as="sourcePoint" />
            <mxPoint x="4" y="66.02999999999997" as="targetPoint" />
          </mxGeometry>
        </mxCell>
        <mxCell id="G8FxuZJUO-ShumowUQQT-89" value="Snd&lt;sub&gt;out&lt;/sub&gt;" style="edgeStyle=orthogonalEdgeStyle;rounded=0;orthogonalLoop=1;jettySize=auto;html=1;exitX=1;exitY=0.5;exitDx=0;exitDy=0;" edge="1" parent="1" source="G8FxuZJUO-ShumowUQQT-88">
          <mxGeometry relative="1" as="geometry">
            <mxPoint x="700" y="380" as="targetPoint" />
          </mxGeometry>
        </mxCell>
        <mxCell id="G8FxuZJUO-ShumowUQQT-91" style="edgeStyle=orthogonalEdgeStyle;rounded=0;orthogonalLoop=1;jettySize=auto;html=1;exitX=0.5;exitY=0;exitDx=0;exitDy=0;startArrow=classic;startFill=1;endArrow=none;endFill=0;" edge="1" parent="1" source="G8FxuZJUO-ShumowUQQT-88">
          <mxGeometry relative="1" as="geometry">
            <mxPoint x="280" y="379.98" as="targetPoint" />
            <Array as="points">
              <mxPoint x="580" y="300" />
              <mxPoint x="280" y="300" />
            </Array>
          </mxGeometry>
        </mxCell>
        <mxCell id="G8FxuZJUO-ShumowUQQT-88" value="DTVF" style="rounded=1;whiteSpace=wrap;html=1;verticalAlign=middle;" vertex="1" parent="1">
          <mxGeometry x="520" y="350" width="120" height="60" as="geometry" />
        </mxCell>
        <mxCell id="G8FxuZJUO-ShumowUQQT-94" value="" style="endArrow=classic;html=1;rounded=0;" edge="1" parent="1">
          <mxGeometry width="50" height="50" relative="1" as="geometry">
            <mxPoint x="480" y="359.98" as="sourcePoint" />
            <mxPoint x="520" y="360.05" as="targetPoint" />
          </mxGeometry>
        </mxCell>
        <mxCell id="G8FxuZJUO-ShumowUQQT-95" value="" style="endArrow=classic;html=1;rounded=0;" edge="1" parent="1">
          <mxGeometry width="50" height="50" relative="1" as="geometry">
            <mxPoint x="480" y="369.98" as="sourcePoint" />
            <mxPoint x="520" y="370.05" as="targetPoint" />
          </mxGeometry>
        </mxCell>
        <mxCell id="G8FxuZJUO-ShumowUQQT-96" value="" style="endArrow=classic;html=1;rounded=0;" edge="1" parent="1">
          <mxGeometry width="50" height="50" relative="1" as="geometry">
            <mxPoint x="480" y="379.98" as="sourcePoint" />
            <mxPoint x="520" y="380.05" as="targetPoint" />
          </mxGeometry>
        </mxCell>
        <mxCell id="G8FxuZJUO-ShumowUQQT-98" value="" style="endArrow=classic;html=1;rounded=0;" edge="1" parent="1">
          <mxGeometry width="50" height="50" relative="1" as="geometry">
            <mxPoint x="480" y="399.9800000000001" as="sourcePoint" />
            <mxPoint x="520" y="400.05" as="targetPoint" />
          </mxGeometry>
        </mxCell>
        <mxCell id="G8FxuZJUO-ShumowUQQT-101" value="" style="endArrow=none;dashed=1;html=1;dashPattern=1 3;strokeWidth=1;rounded=0;" edge="1" parent="1">
          <mxGeometry width="50" height="50" relative="1" as="geometry">
            <mxPoint x="500" y="395.16" as="sourcePoint" />
            <mxPoint x="500" y="385.16" as="targetPoint" />
          </mxGeometry>
        </mxCell>
      </root>
    </mxGraphModel>
  </diagram>
</mxfile>
